<mxfile host="app.diagrams.net" modified="2023-10-09T13:58:23.319Z" agent="Mozilla/5.0 (Windows NT 10.0; Win64; x64) AppleWebKit/537.36 (KHTML, like Gecko) Chrome/117.0.0.0 Safari/537.36" etag="x4_eEWO6tXyS1HTsAlN0" version="22.0.4" type="github">
  <diagram name="Halaman-1" id="p_58rKpDGibx3WNAbqz5">
    <mxGraphModel dx="1222" dy="702" grid="1" gridSize="10" guides="1" tooltips="1" connect="1" arrows="1" fold="1" page="1" pageScale="1" pageWidth="827" pageHeight="1169" math="0" shadow="0">
      <root>
        <mxCell id="0" />
        <mxCell id="1" parent="0" />
        <mxCell id="VMb_2SojXOBkEwM_O3yz-3" value="" style="rounded=0;whiteSpace=wrap;html=1;rotation=-90;" vertex="1" parent="1">
          <mxGeometry x="147.33" y="458.21" width="507.85" height="317.5" as="geometry" />
        </mxCell>
        <mxCell id="VMb_2SojXOBkEwM_O3yz-5" value="GAME SUWIT JEPANG" style="text;strokeColor=none;align=center;fillColor=none;html=1;verticalAlign=middle;whiteSpace=wrap;rounded=0;fontSize=17;fontStyle=1" vertex="1" parent="1">
          <mxGeometry x="300.95" y="370" width="200.61" height="30" as="geometry" />
        </mxCell>
        <mxCell id="VMb_2SojXOBkEwM_O3yz-7" value="" style="ellipse;whiteSpace=wrap;html=1;" vertex="1" parent="1">
          <mxGeometry x="296.72999999999996" y="420" width="209.05" height="110" as="geometry" />
        </mxCell>
        <mxCell id="VMb_2SojXOBkEwM_O3yz-8" value="" style="ellipse;whiteSpace=wrap;html=1;" vertex="1" parent="1">
          <mxGeometry x="296.72999999999996" y="570" width="209.05" height="110" as="geometry" />
        </mxCell>
        <mxCell id="VMb_2SojXOBkEwM_O3yz-9" value="" style="ellipse;whiteSpace=wrap;html=1;" vertex="1" parent="1">
          <mxGeometry x="296.72999999999996" y="730" width="209.05" height="110" as="geometry" />
        </mxCell>
        <mxCell id="VMb_2SojXOBkEwM_O3yz-13" value="Mengacak gambar" style="text;strokeColor=none;align=center;fillColor=none;html=1;verticalAlign=middle;whiteSpace=wrap;rounded=0;fontSize=17;" vertex="1" parent="1">
          <mxGeometry x="331.26" y="458.21" width="148.74" height="30" as="geometry" />
        </mxCell>
        <mxCell id="VMb_2SojXOBkEwM_O3yz-14" value="Menentukan gambar" style="text;strokeColor=none;align=center;fillColor=none;html=1;verticalAlign=middle;whiteSpace=wrap;rounded=0;fontSize=17;" vertex="1" parent="1">
          <mxGeometry x="321.89" y="610" width="158.74" height="30" as="geometry" />
        </mxCell>
        <mxCell id="VMb_2SojXOBkEwM_O3yz-16" value="Menentukan gambar" style="text;strokeColor=none;align=center;fillColor=none;html=1;verticalAlign=middle;whiteSpace=wrap;rounded=0;fontSize=17;" vertex="1" parent="1">
          <mxGeometry x="321.88" y="770" width="158.74" height="30" as="geometry" />
        </mxCell>
        <mxCell id="VMb_2SojXOBkEwM_O3yz-17" value="PLAYER" style="shape=umlActor;verticalLabelPosition=bottom;verticalAlign=top;html=1;outlineConnect=0;" vertex="1" parent="1">
          <mxGeometry x="80" y="556.96" width="60" height="120" as="geometry" />
        </mxCell>
        <mxCell id="VMb_2SojXOBkEwM_O3yz-18" value="COMPUTER" style="shape=umlActor;verticalLabelPosition=bottom;verticalAlign=top;html=1;outlineConnect=0;" vertex="1" parent="1">
          <mxGeometry x="690" y="556.96" width="60" height="120" as="geometry" />
        </mxCell>
        <mxCell id="VMb_2SojXOBkEwM_O3yz-19" value="" style="endArrow=none;html=1;rounded=0;entryX=0;entryY=0.5;entryDx=0;entryDy=0;" edge="1" parent="1" target="VMb_2SojXOBkEwM_O3yz-9">
          <mxGeometry width="50" height="50" relative="1" as="geometry">
            <mxPoint x="150" y="600" as="sourcePoint" />
            <mxPoint x="440" y="610" as="targetPoint" />
            <Array as="points">
              <mxPoint x="250" y="600" />
            </Array>
          </mxGeometry>
        </mxCell>
        <mxCell id="VMb_2SojXOBkEwM_O3yz-20" value="" style="endArrow=none;html=1;rounded=0;exitX=0.994;exitY=0.6;exitDx=0;exitDy=0;exitPerimeter=0;" edge="1" parent="1" source="VMb_2SojXOBkEwM_O3yz-7">
          <mxGeometry width="50" height="50" relative="1" as="geometry">
            <mxPoint x="390" y="660" as="sourcePoint" />
            <mxPoint x="680" y="600" as="targetPoint" />
            <Array as="points">
              <mxPoint x="600" y="490" />
            </Array>
          </mxGeometry>
        </mxCell>
        <mxCell id="VMb_2SojXOBkEwM_O3yz-21" value="" style="endArrow=none;html=1;rounded=0;exitX=1;exitY=0.5;exitDx=0;exitDy=0;" edge="1" parent="1" source="VMb_2SojXOBkEwM_O3yz-8">
          <mxGeometry width="50" height="50" relative="1" as="geometry">
            <mxPoint x="515" y="496" as="sourcePoint" />
            <mxPoint x="680" y="610" as="targetPoint" />
            <Array as="points">
              <mxPoint x="560" y="680" />
              <mxPoint x="630" y="680" />
            </Array>
          </mxGeometry>
        </mxCell>
      </root>
    </mxGraphModel>
  </diagram>
</mxfile>
